<svg height="970.00006" viewBox="0 0 1105.2784 256.64585" width="4177.4302" xmlns="http://www.w3.org/2000/svg"><path d="m101.02781 256.64585c-19.85109 0-38.87505-2.59954-57.07189-7.79863-18.19681-5.43541-32.84878-12.40691-43.95592-20.91451l19.49658-43.24695c10.63449 7.56231 23.15957 13.82484 37.57522 18.78761 14.65204 4.72644 29.42221 7.08966 44.3105 7.08966 11.34346 0 20.44187-1.06345 27.29522-3.19035 7.0897-2.36322 12.2888-5.55357 15.59731-9.57104 3.30851-4.01748 4.96276-8.62576 4.96276-13.82485 0-6.61702-2.59954-11.81611-7.79863-15.59726-5.19909-4.01748-12.05246-7.20783-20.56009-9.57105-8.50759-2.59954-17.96048-4.96276-28.35865-7.08966-10.16186-2.36322-20.44191-5.19909-30.84014-8.5076-10.16185-3.30851-19.49658-7.5623-28.00418-12.76139-8.50759-5.19909-15.47909-12.05244-20.9145-20.56003-5.19909-8.50761-7.79864-19.378431-7.79864-32.612471 0-14.179328 3.78116-27.058881 11.34347-38.63866 7.79863-11.816111 19.37841-21.150837 34.73935-28.004178 15.59731-7.0896607 35.09392-10.634491 58.48983-10.634491 15.59729 0 30.95826 1.8905767 46.08289 5.6717301 15.12461 3.5448273 28.47681 8.9802349 40.0566 16.3062229l-17.72416 43.60143c-11.57979-6.61702-23.15957-11.461621-34.73936-14.533802-11.57982-3.30851-22.9233-4.962765-34.03045-4.962765-11.10714 0-20.20554 1.299772-27.29521 3.899315-7.08969 2.599537-12.17064 6.026205-15.24285 10.280004-3.0722 4.017477-4.6083 8.74392-4.6083 14.179329 0 6.380697 2.59956 11.579784 7.79867 15.597261 5.19911 3.781154 12.05247 6.853337 20.56008 9.216549 8.50759 2.363226 17.84232 4.726466 28.00417 7.089696 10.39821 2.36322 20.67824 5.08092 30.84011 8.15311 10.39817 3.07219 19.85106 7.20782 28.35866 12.40691 8.50759 5.19909 15.36093 12.05243 20.56002 20.56003 5.43541 8.50759 8.15312 19.26025 8.15312 32.25797 0 13.94301-3.89932 26.7044-11.69795 38.28419s-19.49657 20.91451-35.09384 28.00417c-15.36094 7.08967-34.85754 10.6345-58.4898 10.6345zm265.15353 0c-19.61474 0-37.81152-3.19035-54.59034-9.57105-16.54256-6.38069-30.95819-15.36093-43.24689-26.94072-12.05241-11.57979-21.50528-25.16831-28.35862-40.76557-6.61702-15.59726-9.92553-32.61245-9.92553-51.04558 0-64.05847 41.07407-103.010318 81.88552-118.7518902 16.5425-6.3806932 34.50296-9.5710398 53.88138-9.5710398 19.61473 0 37.57522 3.1903466 53.88145 9.5710398 16.54255 6.3807022 30.84003 15.3609452 42.89246 26.9407302 12.28875 11.579778 21.8598 25.168298 28.71314 40.765559 6.85335 15.360927 10.28002 32.376131 10.28002 51.045601 0 18.43313-3.42667 35.56648-10.28002 51.40006-6.85334 15.59727-16.42439 29.18579-28.71314 40.76557-12.05243 11.34347-26.34991 20.20555-42.89246 26.58624-16.30623 6.3807-34.14856 9.57105-53.52697 9.57105zm230.05951-60.97111-3.19035-66.28836 118.75188-125.13258h63.80697l-107.05393 115.20705-31.90348 34.03038zm-51.39997 56.71731v-248.13825h57.0717v248.13825zm169.79736 0-88.26632-108.11738 37.57522-40.76558 117.68843 148.88296zm92.52012 0v-248.13825h57.42628v248.13825zm116.27014 0v-248.13825h57.4263v201.34647h124.4236v46.79178z" fill="#000080"/><text stroke-width="2" transform="matrix(.26458333 0 0 .26458333 236.18256 0)"/><path d="m-.00000496.00002333 40.81559696 20.40753967v.000517c2.495051 19.850528 10.242067 38.675667 22.441524 54.532589l-6.548438 19.936767-23.635766 4.341337 6.614583 19.843747 19.84375 6.61459 5.16971-23.9081 19.108395-6.276107c15.856922 12.199457 54.53311 22.441527 54.53311 22.441527l20.40754 40.81559v-73.27201c-10.49707.41088-35.09952-.995626-57.11073-19.976553l4.19458-12.583728-.00052-.001-.001-.000517-12.608528 4.202844c-20.359325-23.090213-20.350032-56.12562043-20.318697-57.11903267z" fill="#fc0" transform="translate(274.54715 59.662491)"/></svg>